<svg xmlns="http://www.w3.org/2000/svg" viewBox="0 0 1683 1022" role="img" aria-labelledby="aurora-logo-title aurora-logo-desc">
  <title id="aurora-logo-title">Aurora Coffee logo</title>
  <desc id="aurora-logo-desc">A black coffee cup with pastel aurora steam and Aurora Coffee wordmark.</desc>
  <defs>
    <linearGradient id="auroraSteamOne" x1="122" y1="58" x2="459" y2="450" gradientUnits="userSpaceOnUse">
      <stop offset="0" stop-color="#9b79ff"/>
      <stop offset="0.42" stop-color="#9fd7ff"/>
      <stop offset="0.74" stop-color="#fac0dd"/>
      <stop offset="1" stop-color="#ffc58d"/>
    </linearGradient>
    <linearGradient id="auroraSteamTwo" x1="214" y1="84" x2="517" y2="398" gradientUnits="userSpaceOnUse">
      <stop offset="0" stop-color="#8c75ff" stop-opacity="0.92"/>
      <stop offset="0.48" stop-color="#aee8ff" stop-opacity="0.88"/>
      <stop offset="1" stop-color="#ffba88" stop-opacity="0.88"/>
    </linearGradient>
    <linearGradient id="auroraSteamThree" x1="333" y1="142" x2="575" y2="347" gradientUnits="userSpaceOnUse">
      <stop offset="0" stop-color="#c9efff" stop-opacity="0.8"/>
      <stop offset="0.55" stop-color="#f3d7ff" stop-opacity="0.8"/>
      <stop offset="1" stop-color="#ffb284" stop-opacity="0.82"/>
    </linearGradient>
    <linearGradient id="cupStar" x1="266" y1="525" x2="530" y2="730" gradientUnits="userSpaceOnUse">
      <stop offset="0" stop-color="#ffd5cf"/>
      <stop offset="1" stop-color="#e6a56e"/>
    </linearGradient>
    <filter id="steamSoftness" x="-8%" y="-10%" width="116%" height="124%">
      <feGaussianBlur stdDeviation="0.3"/>
    </filter>
  </defs>

  <g filter="url(#steamSoftness)" opacity="0.96">
    <path fill="url(#auroraSteamOne)" d="M122 138c0-69 101-105 181-108 12 0 22 10 22 22v28c0 32-42 45-72 66-28 20-42 41-29 61 19 29 85 15 132 11 74-7 151 7 151 73 0 48-47 64-99 76-50 11-99 23-90 66 6 29 58 35 104 39 38 4 77 10 94 34 27 40-15 83-93 111-20 7-39 14-47 25-4 5-11 6-16 2-12-10-17-29-18-50-2-38-17-50-58-57-50-8-83-14-78-42 5-26 47-33 83-48 29-12 51-28 38-54-13-28-57-32-109-41-58-10-116-32-116-86 0-11 2-22 7-32-10-3-17-13-18-24-1-14-11-21-27-28-23-10-42-29-42-65Z"/>
    <path fill="url(#auroraSteamTwo)" d="M129 129c23 52 87 59 154 63 43 3 80 8 112 18-10 9-22 17-37 24-45 21-97 28-119 63-25 39 26 63 94 74 62 10 123 15 159-11 13-10 23-24 30-42 12 36-23 60-79 75-46 12-91 21-97 52-4 24 20 36 54 45-39 3-90-6-139-19-47-12-87-26-87-60 0-23 23-39 61-55 48-20 98-29 98-62 0-34-52-43-113-51-63-8-132-26-132-85 0-10 2-20 6-29Z" opacity="0.56"/>
    <path fill="url(#auroraSteamThree)" d="M385 105c25-2 49 0 67 6 38 12 45 53 17 78-25 23-85 25-116 48 50-5 100-11 133 6 31 17 39 53 18 77 69-18 135-21 171 11 28 24 24 64-10 91-24 19-54 29-81 31-18 1-19-15-12-28 12-21 5-39-20-48-32-12-83-6-126-19-42-12-37-49 3-64 34-13 86-19 86-54 0-29-38-38-91-38-43 0-94 5-127-10 10-24 43-42 75-59 6-3 10-11 13-28Z" opacity="0.52"/>
  </g>

  <g aria-hidden="true">
    <path fill="#000" d="M0 478h751c2 29 0 58-4 88h25c62 0 109 19 139 58 31 41 37 96 17 148-28 72-108 122-212 122h-64c-27 43-65 81-113 112h212c0 75-168 99-375 99S0 1081 0 1006h213C83 921 0 769 0 586V478Zm735 120c-14 58-38 113-72 164h52c71 0 116-30 132-72 11-29 8-58-8-80-15-20-40-32-74-32h-28l-2 20Z"/>
    <path fill="url(#cupStar)" d="m381 520 14 161 106-122-84 136 133 7-133 9 84 136-106-122-14 160-14-160-106 122 84-136-133-9 133-7-84-136 106 122 14-161Z"/>
  </g>

  <g fill="#000">
    <text x="898" y="628" font-family="Cormorant Garamond, Didot, Georgia, serif" font-size="178" font-weight="500" letter-spacing="6">AURORA</text>
    <text x="898" y="797" font-family="Cormorant Garamond, Didot, Georgia, serif" font-size="126" font-weight="500" letter-spacing="5">COFFEE</text>
    <path d="M1330 569h13v13h-13z" transform="rotate(45 1336.5 575.5)"/>
    <path d="M1084 735h10v10h-10z" transform="rotate(45 1089 740)"/>
  </g>
</svg>
