<svg width="4115" height="394" xmlns="http://www.w3.org/2000/svg" xmlns:xlink="http://www.w3.org/1999/xlink" xml:space="preserve" overflow="hidden"><defs><clipPath id="clip0"><rect x="142" y="1040" width="4115" height="394"/></clipPath><clipPath id="clip1"><rect x="142" y="1040" width="4115" height="394"/></clipPath><linearGradient x1="803" y1="1101" x2="803" y2="1378" gradientUnits="userSpaceOnUse" spreadMethod="reflect" id="fill2"><stop offset="0" stop-color="#80350E" stop-opacity="0"/><stop offset="0.00392157" stop-color="#80350E" stop-opacity="0.00392157"/><stop offset="0.00784314" stop-color="#80350E" stop-opacity="0.00784314"/><stop offset="0.0117647" stop-color="#80350E" stop-opacity="0.0117647"/><stop offset="0.0156863" stop-color="#80350E" stop-opacity="0.0156863"/><stop offset="0.0196078" stop-color="#80350E" stop-opacity="0.0196078"/><stop offset="0.0235294" stop-color="#80350E" stop-opacity="0.0235294"/><stop offset="0.027451" stop-color="#80350E" stop-opacity="0.027451"/><stop offset="0.0313726" stop-color="#80350E" stop-opacity="0.0313726"/><stop offset="0.0352941" stop-color="#80350E" stop-opacity="0.0352941"/><stop offset="0.0392157" stop-color="#80350E" stop-opacity="0.0392157"/><stop offset="0.0431373" stop-color="#80350E" stop-opacity="0.0431373"/><stop offset="0.0470588" stop-color="#80350E" stop-opacity="0.0470588"/><stop offset="0.0509804" stop-color="#80350E" stop-opacity="0.0509804"/><stop offset="0.054902" stop-color="#80350E" stop-opacity="0.054902"/><stop offset="0.0588235" stop-color="#80350E" stop-opacity="0.0588235"/><stop offset="0.0627451" stop-color="#80350E" stop-opacity="0.0627451"/><stop offset="0.0666667" stop-color="#80350E" stop-opacity="0.0666667"/><stop offset="0.0705882" stop-color="#80350E" stop-opacity="0.0705882"/><stop offset="0.0745098" stop-color="#80350E" stop-opacity="0.0745098"/><stop offset="0.0784314" stop-color="#80350E" stop-opacity="0.0784314"/><stop offset="0.0823529" stop-color="#80350E" stop-opacity="0.0823529"/><stop offset="0.0862745" stop-color="#80350E" stop-opacity="0.0862745"/><stop offset="0.0901961" stop-color="#80350E" stop-opacity="0.0901961"/><stop offset="0.0941176" stop-color="#80350E" stop-opacity="0.0941176"/><stop offset="0.0980392" stop-color="#80350E" stop-opacity="0.0980392"/><stop offset="0.101961" stop-color="#80350E" stop-opacity="0.101961"/><stop offset="0.105882" stop-color="#80350E" stop-opacity="0.105882"/><stop offset="0.109804" stop-color="#80350E" stop-opacity="0.109804"/><stop offset="0.113725" stop-color="#80350E" stop-opacity="0.113725"/><stop offset="0.117647" stop-color="#80350E" stop-opacity="0.117647"/><stop offset="0.121569" stop-color="#80350E" stop-opacity="0.121569"/><stop offset="0.12549" stop-color="#80350E" stop-opacity="0.12549"/><stop offset="0.129412" stop-color="#80350E" stop-opacity="0.129412"/><stop offset="0.133333" stop-color="#80350E" stop-opacity="0.133333"/><stop offset="0.137255" stop-color="#80350E" stop-opacity="0.137255"/><stop offset="0.141176" stop-color="#80350E" stop-opacity="0.141176"/><stop offset="0.145098" stop-color="#80350E" stop-opacity="0.145098"/><stop offset="0.14902" stop-color="#80350E" stop-opacity="0.14902"/><stop offset="0.152941" stop-color="#80350E" stop-opacity="0.152941"/><stop offset="0.156863" stop-color="#80350E" stop-opacity="0.156863"/><stop offset="0.160784" stop-color="#80350E" stop-opacity="0.160784"/><stop offset="0.164706" stop-color="#80350E" stop-opacity="0.164706"/><stop offset="0.168627" stop-color="#80350E" stop-opacity="0.168627"/><stop offset="0.172549" stop-color="#80350E" stop-opacity="0.172549"/><stop offset="0.176471" stop-color="#80350E" stop-opacity="0.176471"/><stop offset="0.180392" stop-color="#80350E" stop-opacity="0.180392"/><stop offset="0.184314" stop-color="#80350E" stop-opacity="0.184314"/><stop offset="0.188235" stop-color="#80350E" stop-opacity="0.188235"/><stop offset="0.192157" stop-color="#80350E" stop-opacity="0.192157"/><stop offset="0.196078" stop-color="#80350E" stop-opacity="0.196078"/><stop offset="0.2" stop-color="#80350E" stop-opacity="0.2"/><stop offset="0.203922" stop-color="#80350E" stop-opacity="0.203922"/><stop offset="0.207843" stop-color="#80350E" stop-opacity="0.207843"/><stop offset="0.211765" stop-color="#80350E" stop-opacity="0.211765"/><stop offset="0.215686" stop-color="#80350E" stop-opacity="0.215686"/><stop offset="0.219608" stop-color="#80350E" stop-opacity="0.219608"/><stop offset="0.223529" stop-color="#80350E" stop-opacity="0.223529"/><stop offset="0.227451" stop-color="#80350E" stop-opacity="0.227451"/><stop offset="0.231373" stop-color="#80350E" stop-opacity="0.231373"/><stop offset="0.235294" stop-color="#80350E" stop-opacity="0.235294"/><stop offset="0.239216" stop-color="#80350E" stop-opacity="0.239216"/><stop offset="0.243137" stop-color="#80350E" stop-opacity="0.243137"/><stop offset="0.247059" stop-color="#80350E" stop-opacity="0.247059"/><stop offset="0.25098" stop-color="#80350E" stop-opacity="0.25098"/><stop offset="0.254902" stop-color="#80350E" stop-opacity="0.254902"/><stop offset="0.258824" stop-color="#80350E" stop-opacity="0.258824"/><stop offset="0.262745" stop-color="#80350E" stop-opacity="0.262745"/><stop offset="0.266667" stop-color="#80350E" stop-opacity="0.266667"/><stop offset="0.270588" stop-color="#80350E" stop-opacity="0.270588"/><stop offset="0.27451" stop-color="#80350E" stop-opacity="0.27451"/><stop offset="0.278431" stop-color="#80350E" stop-opacity="0.278431"/><stop offset="0.282353" stop-color="#80350E" stop-opacity="0.282353"/><stop offset="0.286275" stop-color="#80350E" stop-opacity="0.286275"/><stop offset="0.290196" stop-color="#80350E" stop-opacity="0.290196"/><stop offset="0.294118" stop-color="#80350E" stop-opacity="0.294118"/><stop offset="0.298039" stop-color="#80350E" stop-opacity="0.298039"/><stop offset="0.301961" stop-color="#80350E" stop-opacity="0.301961"/><stop offset="0.305882" stop-color="#80350E" stop-opacity="0.305882"/><stop offset="0.309804" stop-color="#80350E" stop-opacity="0.309804"/><stop offset="0.313726" stop-color="#80350E" stop-opacity="0.313726"/><stop offset="0.317647" stop-color="#80350E" stop-opacity="0.317647"/><stop offset="0.321569" stop-color="#80350E" stop-opacity="0.321569"/><stop offset="0.32549" stop-color="#80350E" stop-opacity="0.32549"/><stop offset="0.329412" stop-color="#80350E" stop-opacity="0.329412"/><stop offset="0.333333" stop-color="#80350E" stop-opacity="0.333333"/><stop offset="0.337255" stop-color="#80350E" stop-opacity="0.337255"/><stop offset="0.341176" stop-color="#80350E" stop-opacity="0.341176"/><stop offset="0.345098" stop-color="#80350E" stop-opacity="0.345098"/><stop offset="0.34902" stop-color="#80350E" stop-opacity="0.34902"/><stop offset="0.352941" stop-color="#80350E" stop-opacity="0.352941"/><stop offset="0.356863" stop-color="#80350E" stop-opacity="0.356863"/><stop offset="0.360784" stop-color="#80350E" stop-opacity="0.360784"/><stop offset="0.364706" stop-color="#80350E" stop-opacity="0.364706"/><stop offset="0.368627" stop-color="#80350E" stop-opacity="0.368627"/><stop offset="0.372549" stop-color="#80350E" stop-opacity="0.372549"/><stop offset="0.376471" stop-color="#80350E" stop-opacity="0.376471"/><stop offset="0.380392" stop-color="#80350E" stop-opacity="0.380392"/><stop offset="0.384314" stop-color="#80350E" stop-opacity="0.384314"/><stop offset="0.388235" stop-color="#80350E" stop-opacity="0.388235"/><stop offset="0.392157" stop-color="#80350E" stop-opacity="0.392157"/><stop offset="0.396078" stop-color="#80350E" stop-opacity="0.396078"/><stop offset="0.4" stop-color="#80350E" stop-opacity="0.4"/><stop offset="0.403922" stop-color="#80350E" stop-opacity="0.403922"/><stop offset="0.407843" stop-color="#80350E" stop-opacity="0.407843"/><stop offset="0.411765" stop-color="#80350E" stop-opacity="0.411765"/><stop offset="0.415686" stop-color="#80350E" stop-opacity="0.415686"/><stop offset="0.419608" stop-color="#80350E" stop-opacity="0.419608"/><stop offset="0.423529" stop-color="#80350E" stop-opacity="0.423529"/><stop offset="0.427451" stop-color="#80350E" stop-opacity="0.427451"/><stop offset="0.431373" stop-color="#80350E" stop-opacity="0.431373"/><stop offset="0.435294" stop-color="#80350E" stop-opacity="0.435294"/><stop offset="0.439216" stop-color="#80350E" stop-opacity="0.439216"/><stop offset="0.443137" stop-color="#80350E" stop-opacity="0.443137"/><stop offset="0.447059" stop-color="#80350E" stop-opacity="0.447059"/><stop offset="0.45098" stop-color="#80350E" stop-opacity="0.45098"/><stop offset="0.454902" stop-color="#80350E" stop-opacity="0.454902"/><stop offset="0.458824" stop-color="#80350D" stop-opacity="0.458824"/><stop offset="0.462745" stop-color="#80350E" stop-opacity="0.462745"/><stop offset="0.466667" stop-color="#80350E" stop-opacity="0.466667"/><stop offset="0.470588" stop-color="#80350E" stop-opacity="0.470588"/><stop offset="0.47451" stop-color="#80350E" stop-opacity="0.47451"/><stop offset="0.478431" stop-color="#80350E" stop-opacity="0.478431"/><stop offset="0.482353" stop-color="#80350E" stop-opacity="0.482353"/><stop offset="0.486275" stop-color="#80350E" stop-opacity="0.486275"/><stop offset="0.490196" stop-color="#80350E" stop-opacity="0.490196"/><stop offset="0.494118" stop-color="#80350E" stop-opacity="0.494118"/><stop offset="0.498039" stop-color="#80350E" stop-opacity="0.498039"/><stop offset="0.501961" stop-color="#80350E" stop-opacity="0.501961"/><stop offset="0.505882" stop-color="#80350E" stop-opacity="0.505882"/><stop offset="0.509804" stop-color="#80340E" stop-opacity="0.509804"/><stop offset="0.513726" stop-color="#80350E" stop-opacity="0.513726"/><stop offset="0.517647" stop-color="#80350E" stop-opacity="0.517647"/><stop offset="0.521569" stop-color="#80350E" stop-opacity="0.521569"/><stop offset="0.52549" stop-color="#80350E" stop-opacity="0.52549"/><stop offset="0.529412" stop-color="#80350D" stop-opacity="0.529412"/><stop offset="0.533333" stop-color="#80350E" stop-opacity="0.533333"/><stop offset="0.537255" stop-color="#80350E" stop-opacity="0.537255"/><stop offset="0.541176" stop-color="#80350D" stop-opacity="0.541176"/><stop offset="0.545098" stop-color="#80350E" stop-opacity="0.545098"/><stop offset="0.54902" stop-color="#80350E" stop-opacity="0.54902"/><stop offset="0.552941" stop-color="#80350E" stop-opacity="0.552941"/><stop offset="0.556863" stop-color="#80350E" stop-opacity="0.556863"/><stop offset="0.560784" stop-color="#80350E" stop-opacity="0.560784"/><stop offset="0.564706" stop-color="#80350E" stop-opacity="0.564706"/><stop offset="0.568627" stop-color="#80350E" stop-opacity="0.568627"/><stop offset="0.572549" stop-color="#80350E" stop-opacity="0.572549"/><stop offset="0.576471" stop-color="#80350E" stop-opacity="0.576471"/><stop offset="0.580392" stop-color="#80350E" stop-opacity="0.580392"/><stop offset="0.584314" stop-color="#80350D" stop-opacity="0.584314"/><stop offset="0.588235" stop-color="#80350E" stop-opacity="0.588235"/><stop offset="0.592157" stop-color="#80350E" stop-opacity="0.592157"/><stop offset="0.596078" stop-color="#80350E" stop-opacity="0.596078"/><stop offset="0.6" stop-color="#80350E" stop-opacity="0.6"/><stop offset="0.603922" stop-color="#80350E" stop-opacity="0.603922"/><stop offset="0.607843" stop-color="#80350E" stop-opacity="0.607843"/><stop offset="0.611765" stop-color="#80350E" stop-opacity="0.611765"/><stop offset="0.615686" stop-color="#80350E" stop-opacity="0.615686"/><stop offset="0.619608" stop-color="#80350E" stop-opacity="0.619608"/><stop offset="0.623529" stop-color="#80340D" stop-opacity="0.623529"/><stop offset="0.627451" stop-color="#80350E" stop-opacity="0.627451"/><stop offset="0.631373" stop-color="#80350E" stop-opacity="0.631373"/><stop offset="0.635294" stop-color="#80350E" stop-opacity="0.635294"/><stop offset="0.639216" stop-color="#80350E" stop-opacity="0.639216"/><stop offset="0.643137" stop-color="#80350E" stop-opacity="0.643137"/><stop offset="0.647059" stop-color="#80350E" stop-opacity="0.647059"/><stop offset="0.65098" stop-color="#80350E" stop-opacity="0.65098"/><stop offset="0.654902" stop-color="#80350E" stop-opacity="0.654902"/><stop offset="0.658824" stop-color="#80350E" stop-opacity="0.658824"/><stop offset="0.662745" stop-color="#80350E" stop-opacity="0.662745"/><stop offset="0.666667" stop-color="#80350E" stop-opacity="0.666667"/><stop offset="0.670588" stop-color="#80350E" stop-opacity="0.670588"/><stop offset="0.67451" stop-color="#80350E" stop-opacity="0.67451"/><stop offset="0.678431" stop-color="#80350E" stop-opacity="0.678431"/><stop offset="0.682353" stop-color="#80350E" stop-opacity="0.682353"/><stop offset="0.686275" stop-color="#80350E" stop-opacity="0.686275"/><stop offset="0.690196" stop-color="#80350E" stop-opacity="0.690196"/><stop offset="0.694118" stop-color="#80350E" stop-opacity="0.694118"/><stop offset="0.698039" stop-color="#80350E" stop-opacity="0.698039"/><stop offset="0.701961" stop-color="#80350E" stop-opacity="0.701961"/><stop offset="0.705882" stop-color="#80350E" stop-opacity="0.705882"/><stop offset="0.709804" stop-color="#80350E" stop-opacity="0.709804"/><stop offset="0.713726" stop-color="#80350E" stop-opacity="0.713726"/><stop offset="0.717647" stop-color="#80350E" stop-opacity="0.717647"/><stop offset="0.721569" stop-color="#80350E" stop-opacity="0.721569"/><stop offset="0.72549" stop-color="#80350E" stop-opacity="0.72549"/><stop offset="0.729412" stop-color="#80350E" stop-opacity="0.729412"/><stop offset="0.733333" stop-color="#80350E" stop-opacity="0.733333"/><stop offset="0.737255" stop-color="#80350E" stop-opacity="0.737255"/><stop offset="0.741176" stop-color="#80350E" stop-opacity="0.741176"/><stop offset="0.745098" stop-color="#80350E" stop-opacity="0.745098"/><stop offset="0.74902" stop-color="#80350E" stop-opacity="0.74902"/><stop offset="0.752941" stop-color="#80350E" stop-opacity="0.752941"/><stop offset="0.756863" stop-color="#80350E" stop-opacity="0.756863"/><stop offset="0.760784" stop-color="#80350E" stop-opacity="0.760784"/><stop offset="0.764706" stop-color="#80350E" stop-opacity="0.764706"/><stop offset="0.768627" stop-color="#80350E" stop-opacity="0.768627"/><stop offset="0.772549" stop-color="#80350E" stop-opacity="0.772549"/><stop offset="0.776471" stop-color="#80350E" stop-opacity="0.776471"/><stop offset="0.780392" stop-color="#80350E" stop-opacity="0.780392"/><stop offset="0.784314" stop-color="#80350E" stop-opacity="0.784314"/><stop offset="0.788235" stop-color="#80350E" stop-opacity="0.788235"/><stop offset="0.792157" stop-color="#80350E" stop-opacity="0.792157"/><stop offset="0.796078" stop-color="#80350E" stop-opacity="0.796078"/><stop offset="0.8" stop-color="#80350E" stop-opacity="0.8"/><stop offset="0.803922" stop-color="#80350E" stop-opacity="0.803922"/><stop offset="0.807843" stop-color="#80350E" stop-opacity="0.807843"/><stop offset="0.811765" stop-color="#80350E" stop-opacity="0.811765"/><stop offset="0.815686" stop-color="#80350E" stop-opacity="0.815686"/><stop offset="0.819608" stop-color="#80350E" stop-opacity="0.819608"/><stop offset="0.823529" stop-color="#80350E" stop-opacity="0.823529"/><stop offset="0.827451" stop-color="#80350E" stop-opacity="0.827451"/><stop offset="0.831373" stop-color="#80350E" stop-opacity="0.831373"/><stop offset="0.835294" stop-color="#80350E" stop-opacity="0.835294"/><stop offset="0.839216" stop-color="#80350E" stop-opacity="0.839216"/><stop offset="0.843137" stop-color="#80350E" stop-opacity="0.843137"/><stop offset="0.847059" stop-color="#80350E" stop-opacity="0.847059"/><stop offset="0.85098" stop-color="#80350E" stop-opacity="0.85098"/><stop offset="0.854902" stop-color="#80350E" stop-opacity="0.854902"/><stop offset="0.858824" stop-color="#80350E" stop-opacity="0.858824"/><stop offset="0.862745" stop-color="#80350E" stop-opacity="0.862745"/><stop offset="0.866667" stop-color="#80350E" stop-opacity="0.866667"/><stop offset="0.870588" stop-color="#80350E" stop-opacity="0.870588"/><stop offset="0.87451" stop-color="#80350E" stop-opacity="0.87451"/><stop offset="0.878431" stop-color="#80350E" stop-opacity="0.878431"/><stop offset="0.882353" stop-color="#80350E" stop-opacity="0.882353"/><stop offset="0.886275" stop-color="#80350E" stop-opacity="0.886275"/><stop offset="0.890196" stop-color="#80350E" stop-opacity="0.890196"/><stop offset="0.894118" stop-color="#80350E" stop-opacity="0.894118"/><stop offset="0.898039" stop-color="#80350E" stop-opacity="0.898039"/><stop offset="0.901961" stop-color="#80350E" stop-opacity="0.901961"/><stop offset="0.905882" stop-color="#80350E" stop-opacity="0.905882"/><stop offset="0.909804" stop-color="#80350E" stop-opacity="0.909804"/><stop offset="0.913725" stop-color="#80350E" stop-opacity="0.913725"/><stop offset="0.917647" stop-color="#80350E" stop-opacity="0.917647"/><stop offset="0.921569" stop-color="#80350E" stop-opacity="0.921569"/><stop offset="0.92549" stop-color="#80350E" stop-opacity="0.92549"/><stop offset="0.929412" stop-color="#80350E" stop-opacity="0.929412"/><stop offset="0.933333" stop-color="#80350E" stop-opacity="0.933333"/><stop offset="0.937255" stop-color="#80350E" stop-opacity="0.937255"/><stop offset="0.941176" stop-color="#80350E" stop-opacity="0.941176"/><stop offset="0.945098" stop-color="#80350E" stop-opacity="0.945098"/><stop offset="0.94902" stop-color="#80350E" stop-opacity="0.94902"/><stop offset="0.952941" stop-color="#80350E" stop-opacity="0.952941"/><stop offset="0.956863" stop-color="#80350E" stop-opacity="0.956863"/><stop offset="0.960784" stop-color="#80350E" stop-opacity="0.960784"/><stop offset="0.964706" stop-color="#80350E" stop-opacity="0.964706"/><stop offset="0.968627" stop-color="#80350E" stop-opacity="0.968627"/><stop offset="0.972549" stop-color="#80350E" stop-opacity="0.972549"/><stop offset="0.976471" stop-color="#80350E" stop-opacity="0.976471"/><stop offset="0.980392" stop-color="#80350E" stop-opacity="0.980392"/><stop offset="0.984314" stop-color="#80350E" stop-opacity="0.984314"/><stop offset="0.988235" stop-color="#80350E" stop-opacity="0.988235"/><stop offset="0.992157" stop-color="#80350E" stop-opacity="0.992157"/><stop offset="0.996078" stop-color="#80350E" stop-opacity="0.996078"/><stop offset="1" stop-color="#80350E" stop-opacity="1"/></linearGradient><linearGradient x1="1119.28" y1="1617.14" x2="1261.72" y2="857.859" gradientUnits="userSpaceOnUse" spreadMethod="reflect" id="fill3"><stop offset="0" stop-color="#32CD30" stop-opacity="1"/><stop offset="0.69" stop-color="#0070C0" stop-opacity="1"/><stop offset="0.87" stop-color="#13501B" stop-opacity="1"/><stop offset="1" stop-color="#13501B" stop-opacity="1"/></linearGradient><linearGradient x1="3198.83" y1="1614.01" x2="3349.17" y2="859.988" gradientUnits="userSpaceOnUse" spreadMethod="reflect" id="fill4"><stop offset="0" stop-color="#FFC000" stop-opacity="1"/><stop offset="0.69" stop-color="#80350E" stop-opacity="1"/><stop offset="1" stop-color="#59250A" stop-opacity="1"/></linearGradient></defs><g clip-path="url(#clip0)" transform="translate(-142 -1040)"><g clip-path="url(#clip1)"><path d="M663 1101 943 1101 943 1239.5C943 1315.99 880.991 1378 804.5 1378L801.5 1378C725.009 1378 663 1315.99 663 1239.5L663 1101Z" fill="url(#fill2)" fill-rule="evenodd"/><path d="M2125.51 1101.73 2116.06 1101.97C2052.2 1106.84 1991.76 1134.14 1945.75 1179.53 1919.45 1205.46 1899 1236.19 1885.23 1269.66L1880.3 1283.57 1896.92 1274.89 1915.55 1269.54 1915.47 1269.2 1920.39 1268.15 1920.42 1268.14 1920.42 1268.15 2037.62 1243.28 2048.02 1239.99C2062.47 1234.15 2074.89 1224.57 2084.18 1212.5L2091.2 1200.33 2095.58 1178.28C2102.07 1152.37 2111.7 1127.32 2124.29 1103.72ZM498.94 1099.04 489.497 1099.28C425.634 1104.15 365.194 1131.45 319.18 1176.84 292.887 1202.77 272.435 1233.5 258.665 1266.97L253.737 1280.88 270.353 1272.2 288.98 1266.85 288.907 1266.5 293.82 1265.46 293.853 1265.45 293.854 1265.45 411.05 1240.59 421.453 1237.3C435.906 1231.45 448.328 1221.88 457.609 1209.81L464.632 1197.64 469.016 1175.59C475.502 1149.67 485.138 1124.63 497.72 1101.03ZM1440.84 1098.71C1364.89 1098.71 1303.32 1160.27 1303.32 1236.2 1303.32 1312.14 1364.89 1373.7 1440.84 1373.7 1516.79 1373.7 1578.36 1312.14 1578.36 1236.2 1578.36 1160.27 1516.79 1098.71 1440.84 1098.71ZM1228.23 1046.29 1326.58 1046.29 1322.73 1053.62C1304.65 1079.01 1276.96 1096.32 1245.82 1101.24L1229.1 1102.57 1229.1 1102.62 1228.4 1102.62 1227.7 1102.68 1227.7 1102.62 1145.15 1102.62 1145.16 1102.96C1107.91 1103.57 1078.03 1133.94 1078.03 1171.19L1077.9 1171.19 1077.9 1375.48 1077.87 1375.48C1077.87 1393.89 1073.55 1411.57 1065.72 1427.36L1061.78 1434 982.349 1434 981.75 1432.35C1005.66 1423.65 1021.57 1400.92 1021.57 1375.48L1021.41 1375.48 1021.41 1171.19 1021.41 1170.7 1021.46 1170.7 1023.9 1146.31C1033.87 1097.04 1072.86 1058.22 1122.4 1048.63L1142.77 1046.51 1142.77 1046.34 1227.91 1046.34ZM2141.44 1045.04 2238 1045.04 2235.98 1049.08C2231.08 1056.55 2225.37 1063.38 2219 1069.46L2211.97 1075.22 2212.01 1075.26C2187.76 1102.02 2169.33 1133.04 2157.42 1166.4L2150.62 1188.83 2149.49 1194.79 2148.59 1197.49 2144.52 1217.93C2141.91 1235.53 2141.02 1253.46 2141.93 1271.5 2144.66 1325.59 2163.45 1377.2 2195.3 1420.02L2205.78 1432.75 2136.61 1432.75 2124.74 1412.74C2107.07 1379.82 2095.06 1343.94 2089.44 1306.62L2086.61 1278.38 2084.19 1279.98C2078.84 1283.03 2073.26 1285.74 2067.49 1288.08L2051.18 1293.23 2051.22 1293.41 2049.38 1293.8 2046.92 1294.58 2046.86 1294.34 1930.31 1319.07 1930.31 1319.09C1899.8 1325.02 1875.65 1346.53 1865.49 1374.4L1865.42 1374.62 1865.68 1374.62C1865.68 1393.03 1861.37 1410.71 1853.54 1426.49L1849.82 1432.75 1770.02 1432.75 1769.57 1431.49C1787.5 1424.96 1800.93 1410.55 1806.52 1393.01L1809.11 1376.37 1810.38 1343.76C1817.29 1266.91 1851.17 1194.56 1906.61 1139.87 1962.06 1085.19 2034.88 1052.29 2111.83 1046.43L2138.36 1045.75 2138.36 1045.52ZM1868.29 1044.03 1966.64 1044.03 1962.79 1051.36C1944.71 1076.74 1917.02 1094.06 1885.89 1098.98L1869.16 1100.3 1869.16 1100.36 1868.46 1100.36 1867.76 1100.41 1867.76 1100.36 1785.21 1100.36 1785.22 1100.69C1747.97 1101.31 1718.09 1131.67 1718.09 1168.92L1717.96 1168.92 1717.96 1373.22 1717.93 1373.22C1717.93 1391.63 1713.61 1409.3 1705.78 1425.09L1701.84 1431.74 1622.41 1431.74 1621.81 1430.09C1645.72 1421.38 1661.63 1398.66 1661.63 1373.22L1661.48 1373.22 1661.48 1168.92 1661.48 1168.43 1661.52 1168.43 1663.96 1144.04C1673.93 1094.78 1712.92 1055.96 1762.46 1046.36L1782.83 1044.25 1782.83 1044.08 1867.97 1044.08ZM1440.84 1043.38C1547.35 1043.38 1633.7 1129.71 1633.7 1236.2 1633.7 1342.69 1547.35 1429.02 1440.84 1429.02 1334.33 1429.02 1247.98 1342.69 1247.98 1236.2 1247.98 1129.71 1334.33 1043.38 1440.84 1043.38ZM514.874 1042.35 611.434 1042.35 609.413 1046.39C604.513 1053.86 598.803 1060.68 592.43 1066.77L585.404 1072.53 585.445 1072.57C561.193 1099.32 542.763 1130.35 530.851 1163.71L524.056 1186.14 522.926 1192.1 522.022 1194.8 517.958 1215.24C515.348 1232.84 514.454 1250.77 515.363 1268.8 518.092 1322.89 536.882 1374.5 568.738 1417.33L579.217 1430.06 510.046 1430.06 498.175 1410.05C480.503 1377.13 468.496 1341.25 462.872 1303.93L460.04 1275.69 457.62 1277.29C452.275 1280.34 446.699 1283.05 440.92 1285.39L424.619 1290.54 424.656 1290.72 422.817 1291.11 420.352 1291.89 420.294 1291.65 303.741 1316.38 303.746 1316.4C273.237 1322.32 249.087 1343.84 238.92 1371.7L238.859 1371.93 239.119 1371.93C239.119 1390.34 234.801 1408.02 226.97 1423.8L223.258 1430.06 143.458 1430.06 143 1428.8C160.931 1422.27 174.363 1407.85 179.959 1390.32L182.547 1373.68 183.817 1341.07C190.723 1264.22 224.608 1191.87 280.049 1137.18 335.49 1082.5 408.313 1049.6 485.26 1043.74L511.791 1043.06 511.791 1042.83ZM626.966 1041 705.279 1041 706.012 1043.01C688.081 1049.54 674.649 1063.96 669.053 1081.49L666.347 1098.9 666.347 1237.88C666.347 1313.18 727.404 1374.23 802.722 1374.23L802.722 1374.23C878.04 1374.23 939.097 1313.19 939.097 1237.88L939.097 1099.88 939.067 1099.88 939.097 1099.49 939.097 1097.74 939.233 1097.74 940.476 1081.76C942.103 1071.38 945.108 1061.38 949.332 1051.99L956.139 1041 1034.45 1041 1035.18 1043.01C1017.25 1049.54 1003.82 1063.96 998.226 1081.49L995.55 1098.7 995.55 1237.88C995.55 1344.36 909.218 1430.67 802.722 1430.67L802.722 1430.67C696.226 1430.67 609.894 1344.36 609.894 1237.88L609.894 1099.88 609.894 1097.74 610.061 1097.74 611.304 1081.76C612.93 1071.38 615.935 1061.38 620.159 1051.99Z" fill="url(#fill3)" fill-rule="evenodd"/><path d="M2812.27 1098.43C2736.32 1098.43 2674.75 1160.09 2674.75 1236.15 2674.75 1312.2 2736.32 1373.86 2812.27 1373.86 2888.22 1373.86 2949.79 1312.2 2949.79 1236.15 2949.79 1160.09 2888.22 1098.43 2812.27 1098.43ZM4095.25 1096.67C4064.72 1095.1 4033.79 1103.53 4007.6 1121.94 3971.68 1147.19 3950.36 1187.21 3948.19 1229.56L3948.06 1239.65 3947.65 1239.72 3948.57 1246.76 3948.53 1251.06 3950.65 1266.05C3951.84 1271.73 3953.4 1277.3 3955.29 1282.72L3956.16 1284.77 3958.83 1278.87C3965.19 1268.05 3973.76 1258.62 3984.03 1251.26L4004.12 1240.81C4004.09 1240.72 4004.06 1240.64 4004.03 1240.56L4005.91 1239.88 4006.66 1239.49C4006.67 1239.52 4006.68 1239.56 4006.69 1239.59L4159.99 1184.18C4160.05 1184.34 4160.11 1184.5 4160.16 1184.66L4168.93 1180.02C4177.15 1173.99 4182.53 1164.59 4183.35 1154.09 4184.43 1140.08 4177.18 1126.76 4164.84 1120.08L4165 1119.77 4148.69 1110.3C4131.76 1102.15 4113.58 1097.61 4095.25 1096.67ZM3730.09 1096.67C3699.55 1095.1 3668.62 1103.53 3642.43 1121.94 3606.52 1147.19 3585.2 1187.21 3583.03 1229.56L3582.9 1239.65 3582.49 1239.72 3583.4 1246.76 3583.37 1251.06 3585.49 1266.05C3586.68 1271.73 3588.23 1277.3 3590.13 1282.72L3591 1284.77 3593.67 1278.87C3600.02 1268.05 3608.6 1258.62 3618.86 1251.26L3638.95 1240.81C3638.92 1240.72 3638.89 1240.64 3638.86 1240.56L3640.75 1239.88 3641.49 1239.49C3641.5 1239.52 3641.51 1239.56 3641.53 1239.59L3794.82 1184.18C3794.88 1184.34 3794.94 1184.5 3795 1184.66L3803.76 1180.02C3811.98 1173.99 3817.37 1164.59 3818.18 1154.09 3819.26 1140.08 3812.01 1126.76 3799.68 1120.08L3799.84 1119.77 3783.52 1110.3C3766.59 1102.15 3748.41 1097.61 3730.09 1096.67ZM2493.29 1044C2515.2 1044.87 2537.24 1049.47 2558.51 1058.06L2558.43 1058.26 2559 1058.47C2582.77 1068.54 2604.17 1083.11 2622.15 1101.11L2629.04 1109.47 2622.23 1112.63C2599.57 1121.15 2574.56 1122.74 2550.57 1116.69L2537.08 1111.21C2537.07 1111.24 2537.06 1111.26 2537.05 1111.29 2476.97 1087 2408.12 1107.9 2371.61 1161.5 2357.92 1181.6 2350.16 1204.26 2348.16 1227.22L2348.12 1239.27 2348.16 1251.21C2350.16 1273.98 2357.92 1296.44 2371.61 1316.37 2408.12 1369.5 2476.97 1390.21 2537.05 1366.14 2537.06 1366.17 2537.07 1366.19 2537.08 1366.22L2550.57 1360.78C2574.56 1354.79 2599.57 1356.36 2622.23 1364.81L2629.04 1367.94 2622.15 1376.23C2604.17 1394.08 2582.77 1408.52 2559 1418.49L2558.43 1418.7 2558.51 1418.9C2537.24 1427.42 2515.2 1431.98 2493.29 1432.85 2427.56 1435.45 2363.03 1404.85 2324.26 1348.43 2304.88 1320.22 2293.9 1288.41 2291.06 1256.18L2291 1239.27 2291.06 1222.21C2293.9 1189.7 2304.88 1157.61 2324.26 1129.16 2363.03 1072.24 2427.56 1041.37 2493.29 1044ZM2812.27 1043.02C2918.78 1043.02 3005.12 1129.48 3005.12 1236.15 3005.12 1342.81 2918.78 1429.27 2812.27 1429.27 2705.76 1429.27 2619.41 1342.81 2619.41 1236.15 2619.41 1129.48 2705.76 1043.02 2812.27 1043.02ZM4087.14 1042.54C4116.16 1042.4 4145.22 1048.78 4172.01 1061.67L4190.56 1072.44 4190.75 1072.08 4193.58 1074.2 4197.96 1076.74 4197.63 1077.22 4211.66 1087.71C4229.9 1106.02 4239.72 1131.68 4237.67 1158.3 4235.61 1184.92 4221.95 1208.76 4201.12 1224.04L4178.65 1235.94 4178.79 1236.34 4023.99 1292.3 4016.25 1296.32C4008.35 1301.99 4003.05 1310.84 4001.98 1320.81 4000.91 1330.79 4004.21 1340.56 4010.72 1347.78L4017.81 1353.68 4017.89 1353.57 4035.2 1361.74C4078.01 1377.7 4128.12 1372.01 4167.49 1344.08 4167.51 1344.1 4167.52 1344.12 4167.54 1344.14L4179.32 1335.75C4195.68 1327.13 4213.6 1322.32 4231.64 1321.42 4237.65 1321.11 4243.68 1321.24 4249.67 1321.81L4257 1323.05 4252.29 1332.47C4239.1 1353.51 4221.79 1372.24 4201.14 1387.4L4200.63 1387.73 4200.75 1387.9C4182.17 1401.08 4161.9 1410.76 4140.89 1416.98 4093.61 1430.97 4042.56 1427.4 3998.52 1406.62 3994.28 1404.27 3992.8 1403.97 3985.79 1399.58L3983.12 1397.44 3977.27 1394.07C3956.97 1380.51 3939.72 1363.21 3926.29 1343.33L3919.78 1332.22 3919.58 1332.44 3916.99 1327.45 3914.16 1322.63 3912.73 1319.25 3912.24 1318.3 3911.51 1316.37 3904.76 1300.45 3902.68 1292.99 3901.99 1291.16 3901.4 1288.4 3898.25 1277.05 3896.74 1266.42 3895.86 1262.25 3895.18 1256.17 3895.19 1256.1 3895.13 1255.03 3894.8 1252.7 3895.01 1252.68 3894.95 1251.62 3894.58 1248.73 3894.47 1247.1 3894.55 1247.08 3894.29 1242.93 3894.21 1239.47 3894.26 1230.79 3894.3 1229.12 3895.08 1217.67C3900.52 1162.45 3929.51 1110.93 3976.65 1077.79 4009.8 1054.48 4048.44 1042.73 4087.14 1042.54ZM3721.98 1042.54C3751 1042.4 3780.05 1048.78 3806.84 1061.67L3825.39 1072.44 3825.59 1072.08 3828.41 1074.2 3832.8 1076.74 3832.47 1077.22 3846.5 1087.71C3864.73 1106.02 3874.56 1131.68 3872.5 1158.3 3870.44 1184.92 3856.78 1208.76 3835.95 1224.04L3813.48 1235.94 3813.63 1236.34 3658.83 1292.3 3651.08 1296.32C3643.18 1301.99 3637.88 1310.84 3636.81 1320.81 3635.74 1330.79 3639.04 1340.56 3645.56 1347.78L3652.65 1353.68 3652.72 1353.57 3670.03 1361.74C3712.85 1377.7 3762.96 1372.01 3802.32 1344.08 3802.34 1344.1 3802.36 1344.12 3802.37 1344.14L3814.15 1335.75C3830.51 1327.13 3848.43 1322.32 3866.48 1321.42 3872.49 1321.11 3878.52 1321.24 3884.5 1321.81L3891.83 1323.05 3887.12 1332.47C3873.94 1353.51 3856.63 1372.24 3835.97 1387.4L3835.46 1387.73 3835.58 1387.9C3817.01 1401.08 3796.74 1410.76 3775.72 1416.98 3728.44 1430.97 3677.4 1427.4 3633.35 1406.62 3629.11 1404.27 3627.64 1403.97 3620.62 1399.58L3617.95 1397.44 3612.11 1394.07C3591.8 1380.51 3574.55 1363.21 3561.12 1343.33L3554.61 1332.22 3554.41 1332.44 3551.82 1327.45 3549 1322.63 3547.56 1319.25 3547.07 1318.3 3546.34 1316.37 3539.59 1300.45 3537.52 1292.99 3536.82 1291.16 3536.24 1288.4 3533.08 1277.05 3531.58 1266.42 3530.69 1262.25 3530.02 1256.17 3530.02 1256.1 3529.97 1255.03 3529.64 1252.7 3529.84 1252.68 3529.79 1251.62 3529.41 1248.73 3529.3 1247.1 3529.39 1247.08 3529.12 1242.93 3529.05 1239.47 3529.1 1230.79 3529.14 1229.12 3529.91 1217.67C3535.36 1162.45 3564.34 1110.93 3611.48 1077.79 3644.64 1054.48 3683.28 1042.73 3721.98 1042.54ZM3419.77 1041 3517.94 1041 3514.1 1048.31C3496.05 1073.63 3468.41 1090.91 3437.33 1095.81L3420.63 1097.13 3420.63 1097.19 3419.94 1097.19 3419.24 1097.24 3419.24 1097.19 3416.01 1097.19 3416.01 1097.37 3410.64 1097.37 3410.65 1097.7C3373.39 1098.32 3343.52 1128.74 3343.52 1166.04L3343.39 1166.04 3343.39 1177.13 3343.39 1197.91 3353 1191.82C3363.78 1186.05 3375.5 1181.82 3387.89 1179.42L3408.25 1177.3 3408.25 1177.13 3416.01 1177.13 3416.01 1177.18 3419.45 1177.18 3419.77 1177.13 3517.94 1177.13 3514.1 1184.44C3496.05 1209.76 3468.41 1227.04 3437.33 1231.94L3420.63 1233.26 3420.63 1233.32 3419.94 1233.32 3419.24 1233.37 3419.24 1233.32 3416.01 1233.32 3416.01 1233.5 3410.64 1233.5 3410.65 1233.83C3373.39 1234.45 3343.52 1264.87 3343.52 1302.18L3343.39 1302.18 3343.39 1370.66 3343.36 1370.66C3343.36 1389.1 3339.04 1406.8 3331.21 1422.62L3327.26 1429.27 3247.84 1429.27 3247.24 1427.62C3271.15 1418.9 3287.06 1396.14 3287.06 1370.66L3286.9 1370.66 3286.9 1320.15 3286.9 1320.15 3286.9 1302.18 3286.9 1301.68 3286.9 1301.68 3286.9 1184.02 3286.9 1184.02 3286.9 1166.04 3286.9 1165.55 3286.95 1165.55 3289.39 1141.12C3299.35 1091.78 3338.35 1052.9 3387.89 1043.29L3408.25 1041.17 3408.25 1041 3416.01 1041 3416.01 1041.05 3419.45 1041.05ZM3166.38 1041 3264.55 1041 3260.71 1048.31C3242.66 1073.63 3215.02 1090.91 3183.94 1095.81L3167.24 1097.13 3167.24 1097.19 3166.55 1097.19 3165.85 1097.24 3165.85 1097.19 3162.62 1097.19 3162.62 1097.37 3157.25 1097.37 3157.25 1097.7C3120 1098.32 3090.12 1128.74 3090.12 1166.04L3089.99 1166.04 3089.99 1177.13 3089.99 1197.91 3099.61 1191.82C3110.38 1186.05 3122.11 1181.82 3134.49 1179.42L3154.86 1177.3 3154.86 1177.13 3162.62 1177.13 3162.62 1177.18 3166.06 1177.18 3166.38 1177.13 3264.55 1177.13 3260.71 1184.44C3242.66 1209.76 3215.02 1227.04 3183.94 1231.94L3167.24 1233.26 3167.24 1233.32 3166.55 1233.32 3165.85 1233.37 3165.85 1233.32 3162.62 1233.32 3162.62 1233.5 3157.25 1233.5 3157.25 1233.83C3120 1234.45 3090.12 1264.87 3090.12 1302.18L3089.99 1302.18 3089.99 1370.66 3089.96 1370.66C3089.96 1389.1 3085.64 1406.8 3077.81 1422.62L3073.87 1429.27 2994.45 1429.27 2993.85 1427.62C3017.75 1418.9 3033.66 1396.14 3033.66 1370.66L3033.51 1370.66 3033.51 1320.15 3033.51 1320.15 3033.51 1302.18 3033.51 1301.68 3033.51 1301.68 3033.51 1184.02 3033.51 1184.02 3033.51 1166.04 3033.51 1165.55 3033.56 1165.55 3035.99 1141.12C3045.96 1091.78 3084.95 1052.9 3134.49 1043.29L3154.86 1041.17 3154.86 1041 3162.62 1041 3162.62 1041.05 3166.06 1041.05Z" fill="url(#fill4)" fill-rule="evenodd"/></g></g></svg>