<svg width="1407" height="555" xmlns="http://www.w3.org/2000/svg" xmlns:xlink="http://www.w3.org/1999/xlink" xml:space="preserve" overflow="hidden"><g transform="translate(-2022 -1021)"><path d="M2275.87 1250.04C2277.59 1250.27 2278.45 1251.08 2278.45 1252.43 2278.45 1253.76 2277.47 1254.43 2275.51 1254.43 2270.89 1254.43 2266.75 1254.43 2263.09 1254.43 2259.43 1254.43 2255.54 1254.43 2251.41 1254.43L2251.41 1254.03 2222.89 1254.03 2222.89 1254.43C2218.99 1254.43 2214.91 1254.43 2210.66 1254.43 2206.4 1254.43 2201.83 1254.43 2196.95 1254.43 2195.01 1254.43 2194.05 1253.76 2194.05 1252.43 2194.05 1251.08 2194.89 1250.27 2196.6 1250.04 2200.72 1249.31 2204.55 1248.82 2208.08 1248.59 2211.62 1248.33 2214.13 1247.29 2215.6 1245.46 2217.06 1243.63 2216.7 1240.04 2214.5 1234.68 2212.31 1229.1 2210.05 1223.51 2207.72 1217.92 2205.42 1212.31 2203.04 1206.7 2200.59 1201.08L2079.67 1201.08 2065.76 1234.68C2063.58 1240.04 2063.77 1243.63 2066.31 1245.46 2068.86 1247.29 2072.46 1248.33 2077.08 1248.59 2081.73 1248.82 2086 1249.31 2089.9 1250.04 2091.86 1250.27 2092.77 1251.08 2092.64 1252.43 2092.5 1253.76 2091.47 1254.43 2089.54 1254.43 2084.89 1254.43 2079.41 1254.43 2073.09 1254.43 2066.76 1254.43 2061.53 1254.43 2057.37 1254.43L2057.37 1254.03 2048.99 1254.03 2048.99 1254.43C2045.07 1254.43 2041.35 1254.43 2037.82 1254.43 2034.29 1254.43 2030.08 1254.43 2025.2 1254.43 2023.5 1254.43 2022.59 1253.76 2022.46 1252.43 2022.35 1251.08 2023.15 1250.27 2024.85 1250.04 2029 1249.31 2032.96 1248.82 2036.72 1248.59 2040.51 1248.33 2044.1 1247.1 2047.5 1244.91 2050.92 1242.71 2053.85 1238.58 2056.28 1232.49 2069.91 1200.12 2083.48 1167.81 2096.99 1135.55 2110.52 1103.28 2123.99 1070.95 2137.39 1038.57 2139.82 1032.96 2142.13 1029.01 2144.32 1026.7 2146.52 1024.38 2150.79 1023.83 2157.14 1025.06L2245.18 1234.68C2247.87 1240.04 2250.8 1243.63 2253.96 1245.46 2257.12 1247.29 2260.58 1248.33 2264.35 1248.59 2268.13 1248.82 2271.97 1249.31 2275.87 1250.04ZM2083.31 1193.05 2196.95 1193.05C2187.94 1172.11 2178.97 1151.12 2170.07 1130.07 2161.18 1109 2152.37 1087.99 2143.62 1067.05 2140.92 1061.47 2138.49 1061.47 2136.29 1067.05Z" fill-rule="evenodd"/><path d="M2476.4 1026.42C2478.35 1026.42 2479.38 1027.34 2479.48 1029.17 2479.61 1031 2478.7 1032.14 2476.75 1032.61 2472.87 1033.11 2468.81 1033.54 2464.57 1033.9 2460.33 1034.27 2456.8 1035.55 2453.99 1037.74 2451.2 1039.93 2449.81 1044.32 2449.81 1050.89L2449.81 1171.36C2449.81 1186.22 2447.2 1199.17 2441.97 1210.23 2436.76 1221.3 2429.67 1230.55 2420.69 1237.99 2411.71 1245.41 2401.57 1251.01 2390.28 1254.79 2379 1258.55 2367.54 1260.43 2355.88 1260.43 2343.99 1260.43 2332.46 1258.55 2321.29 1254.79 2310.15 1251.01 2300.09 1245.41 2291.11 1237.99 2282.14 1230.55 2275.03 1221.3 2269.8 1210.23 2264.59 1199.17 2261.99 1186.22 2261.99 1171.36L2261.99 1050.89C2261.99 1044.32 2260.9 1039.93 2258.71 1037.74 2256.52 1035.55 2253.72 1034.27 2250.32 1033.9 2246.93 1033.54 2243.17 1033.11 2239.03 1032.61 2237.34 1032.14 2236.5 1031 2236.5 1029.17 2236.5 1027.34 2237.45 1026.42 2239.39 1026.42L2311.49 1026.42C2313.42 1026.42 2314.38 1027.34 2314.38 1029.17 2314.38 1031 2313.53 1032.14 2311.84 1032.61 2307.73 1033.11 2303.9 1033.54 2300.37 1033.9 2296.85 1034.27 2294.06 1035.55 2292.01 1037.74 2289.95 1039.93 2288.93 1044.32 2288.93 1050.89L2288.93 1171.36C2289.16 1188.41 2292.91 1202.52 2300.17 1213.72 2307.45 1224.92 2316.8 1233.32 2328.2 1238.93 2339.62 1244.52 2351.53 1247.31 2363.92 1247.31 2376.52 1247.31 2388.65 1244.45 2400.31 1238.74 2411.96 1233 2421.49 1224.48 2428.89 1213.17 2436.28 1201.85 2439.98 1187.91 2439.98 1171.36L2439.98 1049.8C2439.98 1043.72 2438.51 1039.65 2435.6 1037.58 2432.71 1035.5 2429.26 1034.27 2425.26 1033.9 2421.25 1033.54 2417.18 1033.11 2413.04 1032.61 2411.34 1032.14 2410.55 1031 2410.66 1029.17 2410.78 1027.34 2411.71 1026.42 2413.43 1026.42Z" fill-rule="evenodd"/><path d="M2690.02 1175.29C2695.38 1175.29 2699.17 1177.25 2701.37 1181.17 2703.57 1185.07 2704.85 1189.64 2705.22 1194.9 2705.58 1200.14 2705.65 1204.57 2705.42 1208.2 2705.42 1216.75 2703.88 1224.94 2700.82 1232.75 2697.78 1240.55 2693.08 1246.94 2686.72 1251.93 2680.38 1256.93 2671.85 1259.43 2661.12 1259.43 2651.35 1259.43 2642.67 1256.81 2635.08 1251.58 2627.51 1246.32 2620.49 1239.85 2614.03 1232.16 2607.57 1224.48 2601.1 1216.81 2594.64 1209.14 2588.17 1201.45 2581.26 1194.86 2573.94 1189.37 2566.64 1183.88 2558.21 1181.01 2548.69 1180.78 2545.52 1181.01 2543.87 1179.74 2543.74 1176.93 2543.6 1174.14 2545.14 1172.99 2548.34 1173.48 2551.01 1173.72 2552.39 1173.97 2552.5 1174.23 2552.63 1174.46 2554.16 1174.58 2557.09 1174.58 2575.16 1174.58 2591.5 1171.9 2606.14 1166.54 2620.8 1161.16 2632.39 1153.16 2640.93 1142.57 2649.5 1131.96 2653.78 1118.84 2653.78 1103.23 2653.78 1079.83 2645.11 1062.51 2627.78 1051.3 2610.44 1040.08 2586.88 1034.47 2557.09 1034.47 2553.69 1034.47 2551.12 1034.47 2549.4 1034.47 2547.69 1034.47 2546.24 1034.47 2545.04 1034.47L2546.14 1034.82C2541.47 1034.82 2537.5 1035.8 2534.2 1037.76 2530.92 1039.72 2529.29 1043.87 2529.29 1050.2L2529.29 1232.01C2529.29 1238.34 2530.32 1242.67 2532.39 1244.99 2534.46 1247.3 2537.26 1248.58 2540.8 1248.84 2544.35 1249.07 2548.2 1249.56 2552.34 1250.29 2554.04 1250.52 2554.89 1251.62 2554.89 1253.58 2554.89 1255.52 2553.92 1256.48 2551.99 1256.48L2479.46 1256.48C2477.51 1256.48 2476.55 1255.52 2476.55 1253.58 2476.55 1251.62 2477.4 1250.52 2479.1 1250.29 2483.27 1249.56 2487.05 1249.07 2490.45 1248.84 2493.88 1248.58 2496.7 1247.3 2498.9 1244.99 2501.1 1242.67 2502.2 1238.34 2502.2 1232.01L2502.2 1050.94C2502.2 1044.35 2501.1 1039.96 2498.9 1037.76 2496.7 1035.57 2493.88 1034.29 2490.45 1033.92 2487.05 1033.56 2483.27 1033.12 2479.1 1032.62 2477.4 1032.15 2476.55 1031.01 2476.55 1029.17 2476.55 1027.35 2477.51 1026.43 2479.46 1026.43L2585.68 1026.43C2603.25 1026.43 2619.53 1029.29 2634.53 1035.02 2649.55 1040.74 2661.71 1049.28 2670.98 1060.63 2680.26 1071.96 2684.92 1086.04 2684.92 1102.88 2684.92 1115.57 2682.22 1126.6 2676.83 1135.98 2671.46 1145.38 2664.32 1153.12 2655.42 1159.2 2646.52 1165.3 2636.58 1170.06 2625.58 1173.48 2614.58 1176.89 2603.35 1179.07 2591.89 1180.03 2599.45 1181.99 2606.03 1185.29 2611.64 1189.92 2617.26 1194.55 2622.4 1199.74 2627.03 1205.49 2631.69 1211.22 2636.27 1216.71 2640.78 1221.97 2645.3 1227.2 2650.12 1231.58 2655.23 1235.11 2660.35 1238.64 2666.34 1240.4 2673.17 1240.4 2679.77 1240.4 2685.13 1238.46 2689.28 1234.56 2693.44 1230.66 2695.81 1226.1 2696.42 1220.87 2697.05 1215.61 2695.53 1211.02 2691.87 1207.1 2688.7 1203.21 2685.64 1199.79 2682.72 1196.86 2679.78 1193.94 2678.32 1190.53 2678.32 1186.62 2678.32 1183.23 2679.47 1180.49 2681.77 1178.43 2684.1 1176.34 2686.85 1175.29 2690.02 1175.29Z" fill-rule="evenodd"/><path d="M2828.12 1021.42C2849.14 1021.42 2867.59 1024.78 2883.48 1031.49 2899.36 1038.18 2912.55 1047.26 2923.07 1058.72 2933.58 1070.15 2941.45 1083 2946.7 1097.26 2951.97 1111.5 2954.6 1126.23 2954.6 1141.44 2954.6 1156.64 2951.97 1171.37 2946.7 1185.63 2941.45 1199.87 2933.58 1212.72 2923.07 1224.17 2912.55 1235.61 2899.36 1244.69 2883.48 1251.4 2867.59 1258.08 2849.14 1261.43 2828.12 1261.43 2807.1 1261.43 2788.63 1258.08 2772.73 1251.4 2756.84 1244.69 2743.64 1235.61 2733.13 1224.17 2722.62 1212.72 2714.73 1199.87 2709.47 1185.63 2704.22 1171.37 2701.6 1156.64 2701.6 1141.44 2701.6 1126.23 2704.22 1111.5 2709.47 1097.26 2714.73 1083 2722.62 1070.15 2733.13 1058.72 2743.64 1047.26 2756.84 1038.18 2772.73 1031.49 2788.63 1024.78 2807.1 1021.42 2828.12 1021.42ZM2828.12 1254.1C2846.68 1254.1 2862.54 1250.03 2875.73 1241.88 2888.94 1233.73 2899.52 1222.96 2907.46 1209.56 2915.42 1196.17 2920.75 1181.44 2923.42 1165.38 2926.12 1149.3 2926.19 1133.28 2923.62 1117.32 2921.05 1101.36 2915.8 1086.7 2907.85 1073.33 2899.91 1059.93 2889.27 1049.16 2875.93 1041.01 2862.61 1032.84 2846.68 1028.75 2828.12 1028.75 2809.53 1028.75 2793.64 1032.84 2780.43 1041.01 2767.24 1049.16 2756.68 1059.93 2748.74 1073.33 2740.8 1086.7 2735.47 1101.43 2732.78 1117.51 2730.11 1133.57 2730.11 1149.58 2732.78 1165.53 2735.47 1181.5 2740.8 1196.17 2748.74 1209.56 2756.68 1222.96 2767.24 1233.73 2780.43 1241.88 2793.64 1250.03 2809.53 1254.1 2828.12 1254.1ZM2847.9 1138.7C2849.6 1139.44 2850.45 1140.42 2850.45 1141.64 2850.45 1142.85 2849.6 1143.7 2847.9 1144.19 2845.95 1144.92 2843.63 1145.35 2840.94 1145.48 2838.24 1145.59 2836.28 1146.37 2835.08 1147.83 2833.61 1149.03 2832.81 1151.04 2832.68 1153.86 2832.57 1156.66 2832.02 1159.03 2831.03 1160.99 2830.29 1162.7 2829.31 1163.54 2828.08 1163.54 2826.87 1163.54 2826.02 1162.7 2825.53 1160.99 2824.79 1159.03 2824.36 1156.72 2824.23 1154.06 2824.12 1151.37 2823.33 1149.42 2821.87 1148.18 2820.63 1146.72 2818.62 1145.94 2815.82 1145.83 2813 1145.7 2810.63 1145.16 2808.66 1144.19 2806.95 1143.46 2806.1 1142.48 2806.1 1141.25 2806.1 1140.02 2806.95 1139.17 2808.66 1138.7 2810.63 1137.98 2812.95 1137.55 2815.62 1137.41 2818.31 1137.28 2820.28 1136.49 2821.52 1135.02 2822.98 1133.83 2823.77 1131.83 2823.88 1129.03 2824 1126.21 2824.55 1123.84 2825.53 1121.9 2826.25 1120.17 2827.24 1119.31 2828.48 1119.31 2829.7 1119.31 2830.56 1120.17 2831.03 1121.9 2831.76 1123.84 2832.19 1126.15 2832.33 1128.83 2832.46 1131.5 2833.24 1133.44 2834.69 1134.67 2835.92 1136.14 2837.93 1136.93 2840.74 1137.06 2843.57 1137.17 2845.95 1137.71 2847.9 1138.7Z" fill-rule="evenodd"/><path d="M3160.19 1175.29C3165.53 1175.29 3169.3 1177.25 3171.49 1181.17 3173.68 1185.07 3174.95 1189.64 3175.32 1194.9 3175.68 1200.14 3175.75 1204.57 3175.52 1208.2 3175.52 1216.75 3173.99 1224.94 3170.94 1232.75 3167.91 1240.55 3163.24 1246.94 3156.9 1251.93 3150.59 1256.93 3142.1 1259.43 3131.41 1259.43 3121.69 1259.43 3113.05 1256.81 3105.49 1251.58 3097.95 1246.32 3090.97 1239.85 3084.53 1232.16 3078.09 1224.48 3071.65 1216.81 3065.22 1209.14 3058.78 1201.45 3051.91 1194.86 3044.62 1189.37 3037.34 1183.88 3028.96 1181.01 3019.48 1180.78 3016.32 1181.01 3014.68 1179.74 3014.55 1176.93 3014.41 1174.14 3015.94 1172.99 3019.12 1173.48 3021.78 1173.72 3023.16 1173.97 3023.27 1174.23 3023.4 1174.46 3024.92 1174.58 3027.84 1174.58 3045.83 1174.58 3062.1 1171.9 3076.68 1166.54 3091.27 1161.16 3102.81 1153.16 3111.32 1142.57 3119.84 1131.96 3124.1 1118.84 3124.1 1103.23 3124.1 1079.83 3115.47 1062.51 3098.22 1051.3 3080.96 1040.08 3057.5 1034.47 3027.84 1034.47 3024.45 1034.47 3021.9 1034.47 3020.18 1034.47 3018.48 1034.47 3017.03 1034.47 3015.84 1034.47L3016.93 1034.82C3012.29 1034.82 3008.33 1035.8 3005.05 1037.76 3001.78 1039.72 3000.16 1043.87 3000.16 1050.2L3000.16 1232.01C3000.16 1238.34 3001.19 1242.67 3003.25 1244.99 3005.3 1247.3 3008.1 1248.58 3011.62 1248.84 3015.16 1249.07 3018.99 1249.56 3023.11 1250.29 3024.8 1250.52 3025.65 1251.62 3025.65 1253.58 3025.65 1255.52 3024.69 1256.48 3022.76 1256.48L2950.55 1256.48C2948.61 1256.48 2947.65 1255.52 2947.65 1253.58 2947.65 1251.62 2948.49 1250.52 2950.19 1250.29 2954.34 1249.56 2958.1 1249.07 2961.49 1248.84 2964.9 1248.58 2967.71 1247.3 2969.9 1244.99 2972.09 1242.67 2973.18 1238.34 2973.18 1232.01L2973.18 1050.94C2973.18 1044.35 2972.09 1039.96 2969.9 1037.76 2967.71 1035.57 2964.9 1034.29 2961.49 1033.92 2958.1 1033.56 2954.34 1033.12 2950.19 1032.62 2948.49 1032.15 2947.65 1031.01 2947.65 1029.17 2947.65 1027.35 2948.61 1026.43 2950.55 1026.43L3056.31 1026.43C3073.79 1026.43 3090.01 1029.29 3104.94 1035.02 3119.9 1040.74 3132 1049.28 3141.23 1060.63 3150.47 1071.96 3155.11 1086.04 3155.11 1102.88 3155.11 1115.57 3152.42 1126.6 3147.05 1135.98 3141.71 1145.38 3134.6 1153.12 3125.74 1159.2 3116.88 1165.3 3106.98 1170.06 3096.03 1173.48 3085.08 1176.89 3073.9 1179.07 3062.48 1180.03 3070.01 1181.99 3076.57 1185.29 3082.15 1189.92 3087.75 1194.55 3092.86 1199.74 3097.48 1205.49 3102.11 1211.22 3106.67 1216.71 3111.16 1221.97 3115.67 1227.2 3120.47 1231.58 3125.55 1235.11 3130.65 1238.64 3136.61 1240.4 3143.42 1240.4 3149.98 1240.4 3155.32 1238.46 3159.45 1234.56 3163.59 1230.66 3165.96 1226.1 3166.56 1220.87 3167.19 1215.61 3165.67 1211.02 3162.03 1207.1 3158.87 1203.21 3155.83 1199.79 3152.92 1196.86 3149.99 1193.94 3148.54 1190.53 3148.54 1186.62 3148.54 1183.23 3149.68 1180.49 3151.98 1178.43 3154.3 1176.34 3157.03 1175.29 3160.19 1175.29Z" fill-rule="evenodd"/><path d="M3426.12 1250.04C3427.84 1250.27 3428.7 1251.08 3428.7 1252.43 3428.7 1253.76 3427.72 1254.43 3425.76 1254.43 3421.14 1254.43 3417 1254.43 3413.34 1254.43 3409.68 1254.43 3405.79 1254.43 3401.67 1254.43L3401.67 1254.03 3373.14 1254.03 3373.14 1254.43C3369.24 1254.43 3365.17 1254.43 3360.92 1254.43 3356.65 1254.43 3352.08 1254.43 3347.2 1254.43 3345.26 1254.43 3344.3 1253.76 3344.3 1252.43 3344.3 1251.08 3345.14 1250.27 3346.85 1250.04 3350.97 1249.31 3354.8 1248.82 3358.33 1248.59 3361.87 1248.33 3364.38 1247.29 3365.85 1245.46 3367.31 1243.63 3366.95 1240.04 3364.75 1234.68 3362.56 1229.1 3360.3 1223.51 3357.98 1217.92 3355.67 1212.31 3353.29 1206.7 3350.84 1201.08L3229.92 1201.08 3216.01 1234.68C3213.84 1240.04 3214.02 1243.63 3216.56 1245.46 3219.12 1247.29 3222.71 1248.33 3227.34 1248.59 3231.98 1248.82 3236.25 1249.31 3240.15 1250.04 3242.11 1250.27 3243.02 1251.08 3242.89 1252.43 3242.75 1253.76 3241.73 1254.43 3239.8 1254.43 3235.14 1254.43 3229.66 1254.43 3223.34 1254.43 3217.01 1254.43 3211.78 1254.43 3207.63 1254.43L3207.63 1254.03 3199.24 1254.03 3199.24 1254.43C3195.32 1254.43 3191.6 1254.43 3188.07 1254.43 3184.55 1254.43 3180.33 1254.43 3175.46 1254.43 3173.75 1254.43 3172.84 1253.76 3172.71 1252.43 3172.61 1251.08 3173.4 1250.27 3175.1 1250.04 3179.26 1249.31 3183.21 1248.82 3186.98 1248.59 3190.76 1248.33 3194.35 1247.1 3197.75 1244.91 3201.17 1242.71 3204.1 1238.58 3206.53 1232.49 3220.17 1200.12 3233.73 1167.81 3247.24 1135.55 3260.77 1103.28 3274.24 1070.95 3287.64 1038.57 3290.07 1032.96 3292.38 1029.01 3294.58 1026.7 3296.77 1024.38 3301.04 1023.83 3307.39 1025.06L3395.44 1234.68C3398.12 1240.04 3401.05 1243.63 3404.21 1245.46 3407.37 1247.29 3410.84 1248.33 3414.6 1248.59 3418.38 1248.82 3422.22 1249.31 3426.12 1250.04ZM3233.57 1193.05 3347.2 1193.05C3338.19 1172.11 3329.22 1151.12 3320.32 1130.07 3311.43 1109 3302.62 1087.99 3293.87 1067.05 3291.18 1061.47 3288.74 1061.47 3286.54 1067.05Z" fill-rule="evenodd"/><path d="M2230.46 1525.33C2232.65 1522.18 2235.08 1520.59 2237.75 1520.59 2240.43 1520.59 2242.45 1521.8 2243.79 1524.23 2245.12 1526.66 2244.45 1529.34 2241.79 1532.25 2231.3 1544.41 2218.63 1554.32 2203.76 1561.99 2188.88 1569.66 2170.37 1573.49 2148.21 1573.49 2124.32 1573.49 2103.78 1569.18 2086.59 1560.54 2069.42 1551.91 2055.71 1540.49 2045.47 1526.26 2035.24 1512.02 2028.42 1496.39 2025 1479.35 2021.6 1462.32 2021.6 1445.35 2025 1428.44 2028.42 1411.54 2035.24 1395.98 2045.47 1381.76 2055.71 1367.52 2069.42 1356.08 2086.59 1347.44 2103.78 1338.82 2124.32 1334.49 2148.21 1334.49 2157.46 1334.49 2166.22 1335.23 2174.52 1336.68 2182.8 1338.15 2190.47 1340.23 2197.53 1342.91 2200.95 1343.64 2205.15 1345.28 2210.15 1347.84 2215.14 1350.37 2219.95 1353.23 2224.58 1356.41 2229.22 1359.57 2232.65 1362.47 2234.85 1365.13 2238.74 1369.78 2240.55 1374.17 2240.3 1378.32 2240.06 1382.45 2238.66 1385.78 2236.1 1388.34 2233.53 1390.87 2230.43 1392.13 2226.77 1392.13 2224.34 1392.13 2221.72 1391.35 2218.93 1389.78 2216.13 1388.2 2213.76 1385.46 2211.8 1381.57 2210.33 1378.42 2209.23 1375.01 2208.5 1371.35 2207.77 1367.7 2206.05 1364 2203.37 1360.24 2200.7 1356.46 2195.34 1352.75 2187.3 1349.09 2181.46 1347.13 2175.01 1345.8 2167.93 1345.1 2160.87 1344.37 2154.3 1344 2148.21 1344 2130.41 1344 2115.05 1347.95 2102.11 1355.86 2089.19 1363.76 2078.84 1374.29 2071.06 1387.44 2063.27 1400.56 2058.03 1414.97 2055.34 1430.67 2052.65 1446.35 2052.58 1462.04 2055.15 1477.74 2057.71 1493.43 2062.83 1507.84 2070.51 1520.98 2078.2 1534.11 2088.49 1544.62 2101.41 1552.52 2114.31 1560.42 2129.91 1564.38 2148.21 1564.38 2165.01 1564.38 2178.65 1562.44 2189.14 1558.55 2199.61 1554.63 2208.01 1549.7 2214.34 1543.76 2220.7 1537.79 2226.07 1531.64 2230.46 1525.33Z" fill-rule="evenodd"/><path d="M2366.52 1335.49C2387.45 1335.49 2405.84 1338.85 2421.66 1345.56 2437.48 1352.25 2450.62 1361.33 2461.09 1372.78 2471.56 1384.22 2479.4 1397.07 2484.63 1411.33 2489.88 1425.57 2492.5 1440.3 2492.5 1455.51 2492.5 1470.71 2489.88 1485.44 2484.63 1499.7 2479.4 1513.94 2471.56 1526.79 2461.09 1538.24 2450.62 1549.68 2437.48 1558.76 2421.66 1565.47 2405.84 1572.14 2387.45 1575.49 2366.52 1575.49 2345.58 1575.49 2327.18 1572.14 2311.34 1565.47 2295.52 1558.76 2282.37 1549.68 2271.91 1538.24 2261.43 1526.79 2253.58 1513.94 2248.33 1499.7 2243.1 1485.44 2240.5 1470.71 2240.5 1455.51 2240.5 1440.3 2243.1 1425.57 2248.33 1411.33 2253.58 1397.07 2261.43 1384.22 2271.91 1372.78 2282.37 1361.33 2295.52 1352.25 2311.34 1345.56 2327.18 1338.85 2345.58 1335.49 2366.52 1335.49ZM2366.52 1568.17C2385 1568.17 2400.8 1564.1 2413.94 1555.95 2427.1 1547.8 2437.63 1537.03 2445.54 1523.63 2453.48 1510.24 2458.78 1495.51 2461.44 1479.45 2464.13 1463.37 2464.2 1447.35 2461.64 1431.38 2459.08 1415.43 2453.85 1400.77 2445.94 1387.4 2438.03 1374 2427.42 1363.23 2414.14 1355.08 2400.87 1346.91 2385 1342.82 2366.52 1342.82 2348.01 1342.82 2332.17 1346.91 2319.02 1355.08 2305.88 1363.23 2295.36 1374 2287.45 1387.4 2279.54 1400.77 2274.24 1415.5 2271.55 1431.58 2268.89 1447.64 2268.89 1463.65 2271.55 1479.6 2274.24 1495.57 2279.54 1510.24 2287.45 1523.63 2295.36 1537.03 2305.88 1547.8 2319.02 1555.95 2332.17 1564.1 2348.01 1568.17 2366.52 1568.17ZM2386.22 1452.77C2387.91 1453.51 2388.76 1454.49 2388.76 1455.71 2388.76 1456.91 2387.91 1457.77 2386.22 1458.26 2384.28 1458.99 2381.97 1459.42 2379.28 1459.55 2376.59 1459.66 2374.64 1460.44 2373.45 1461.9 2371.98 1463.1 2371.19 1465.11 2371.06 1467.93 2370.95 1470.73 2370.41 1473.1 2369.42 1475.06 2368.68 1476.76 2367.7 1477.61 2366.48 1477.61 2365.28 1477.61 2364.42 1476.76 2363.93 1475.06 2363.2 1473.1 2362.77 1470.79 2362.64 1468.13 2362.53 1465.44 2361.75 1463.49 2360.29 1462.25 2359.06 1460.79 2357.05 1460.01 2354.26 1459.9 2351.46 1459.77 2349.09 1459.23 2347.13 1458.26 2345.43 1457.53 2344.59 1456.55 2344.59 1455.32 2344.59 1454.09 2345.43 1453.24 2347.13 1452.77 2349.09 1452.05 2351.4 1451.62 2354.07 1451.48 2356.75 1451.35 2358.71 1450.56 2359.94 1449.09 2361.4 1447.89 2362.18 1445.9 2362.29 1443.1 2362.42 1440.28 2362.96 1437.91 2363.93 1435.97 2364.66 1434.24 2365.64 1433.38 2366.87 1433.38 2368.09 1433.38 2368.95 1434.24 2369.42 1435.97 2370.14 1437.91 2370.57 1440.22 2370.71 1442.9 2370.84 1445.56 2371.62 1447.51 2373.06 1448.74 2374.28 1450.21 2376.29 1451 2379.09 1451.13 2381.91 1451.23 2384.28 1451.78 2386.22 1452.77Z" fill-rule="evenodd"/><path d="M2664.36 1341.3 2666.55 1379.65C2666.55 1381.11 2665.63 1381.98 2663.81 1382.23 2661.98 1382.47 2660.82 1381.74 2660.33 1380.04 2658.63 1372 2656.07 1365.66 2652.66 1361.04 2649.27 1356.42 2644.1 1353.08 2637.17 1351.01 2630.22 1348.92 2620.31 1347.88 2607.43 1347.88L2550.14 1347.88C2545.53 1347.88 2541.62 1348.86 2538.44 1350.81 2535.28 1352.75 2533.71 1356.89 2533.71 1363.23L2533.71 1455.29 2606.33 1455.29C2617.76 1455.29 2625.29 1452.8 2628.95 1447.8 2632.6 1442.79 2634.54 1437.61 2634.78 1432.25 2635.03 1430.32 2636.13 1429.42 2638.07 1429.55 2640.02 1429.66 2641 1430.68 2641 1432.61L2641 1485.96C2641 1487.66 2640.02 1488.57 2638.07 1488.7 2636.13 1488.84 2635.03 1488.03 2634.78 1486.31 2634.54 1480.73 2632.6 1475.5 2628.95 1470.64 2625.29 1465.76 2617.76 1463.32 2606.33 1463.32L2533.71 1463.32 2533.71 1544.4C2533.71 1550.73 2534.8 1554.98 2537 1557.17 2539.19 1559.37 2542.04 1560.65 2545.57 1561.01 2549.11 1561.38 2552.82 1561.93 2556.72 1562.66 2558.64 1562.92 2559.54 1563.97 2559.42 1565.79 2559.31 1567.59 2558.28 1568.49 2556.33 1568.49L2484.45 1568.49C2482.51 1568.49 2481.55 1567.59 2481.55 1565.79 2481.55 1563.97 2482.39 1562.92 2484.09 1562.66 2488.24 1561.93 2492.01 1561.38 2495.4 1561.01 2498.82 1560.65 2501.62 1559.37 2503.81 1557.17 2506.01 1554.98 2507.1 1550.73 2507.1 1544.4L2507.1 1363.94C2507.1 1357.39 2506.01 1353.01 2503.81 1350.81 2501.62 1348.62 2498.82 1347.41 2495.4 1347.17 2492.01 1346.92 2488.24 1346.42 2484.09 1345.68 2482.39 1345.19 2481.55 1344.04 2481.55 1342.24 2481.55 1340.41 2482.51 1339.49 2484.45 1339.49L2661.78 1339.49C2663.5 1339.49 2664.36 1340.1 2664.36 1341.3Z" fill-rule="evenodd"/><path d="M2857.4 1341.3 2859.59 1379.65C2859.59 1381.11 2858.67 1381.98 2856.85 1382.23 2855.03 1382.47 2853.86 1381.74 2853.37 1380.04 2851.67 1372 2849.12 1365.66 2845.7 1361.04 2842.31 1356.42 2837.14 1353.08 2830.21 1351.01 2823.26 1348.92 2813.35 1347.88 2800.47 1347.88L2743.19 1347.88C2738.57 1347.88 2734.67 1348.86 2731.49 1350.81 2728.33 1352.75 2726.75 1356.89 2726.75 1363.23L2726.75 1455.29 2799.37 1455.29C2810.8 1455.29 2818.33 1452.8 2821.99 1447.8 2825.64 1442.79 2827.59 1437.61 2827.82 1432.25 2828.08 1430.32 2829.17 1429.42 2831.11 1429.55 2833.06 1429.66 2834.04 1430.68 2834.04 1432.61L2834.04 1485.96C2834.04 1487.66 2833.06 1488.57 2831.11 1488.7 2829.17 1488.84 2828.08 1488.03 2827.82 1486.31 2827.59 1480.73 2825.64 1475.5 2821.99 1470.64 2818.33 1465.76 2810.8 1463.32 2799.37 1463.32L2726.75 1463.32 2726.75 1544.4C2726.75 1550.73 2727.85 1554.98 2730.04 1557.17 2732.23 1559.37 2735.09 1560.65 2738.61 1561.01 2742.15 1561.38 2745.87 1561.93 2749.76 1562.66 2751.69 1562.92 2752.59 1563.97 2752.46 1565.79 2752.35 1567.59 2751.32 1568.49 2749.37 1568.49L2677.49 1568.49C2675.55 1568.49 2674.59 1567.59 2674.59 1565.79 2674.59 1563.97 2675.43 1562.92 2677.14 1562.66 2681.28 1561.93 2685.05 1561.38 2688.44 1561.01 2691.86 1560.65 2694.67 1559.37 2696.86 1557.17 2699.05 1554.98 2700.14 1550.73 2700.14 1544.4L2700.14 1363.94C2700.14 1357.39 2699.05 1353.01 2696.86 1350.81 2694.67 1348.62 2691.86 1347.41 2688.44 1347.17 2685.05 1346.92 2681.28 1346.42 2677.14 1345.68 2675.43 1345.19 2674.59 1344.04 2674.59 1342.24 2674.59 1340.41 2675.55 1339.49 2677.49 1339.49L2854.82 1339.49C2856.54 1339.49 2857.4 1340.1 2857.4 1341.3Z" fill-rule="evenodd"/><path d="M3050.41 1528.34C3050.9 1526.62 3052.07 1525.83 3053.9 1525.95 3055.72 1526.09 3056.63 1527 3056.63 1528.7L3054.8 1566.69C3054.8 1567.9 3053.94 1568.49 3052.25 1568.49L2866.53 1568.49C2864.59 1568.49 2863.63 1567.59 2863.63 1565.79 2863.63 1563.97 2864.48 1562.92 2866.18 1562.66 2870.32 1561.93 2874.09 1561.38 2877.48 1561.01 2880.9 1560.65 2883.64 1559.37 2885.7 1557.17 2887.75 1554.98 2888.79 1550.73 2888.79 1544.4L2888.79 1363.94C2888.79 1357.39 2887.75 1353.01 2885.7 1350.81 2883.64 1348.62 2880.9 1347.41 2877.48 1347.17 2874.09 1346.92 2870.32 1346.42 2866.18 1345.68 2864.48 1345.19 2863.63 1344.04 2863.63 1342.24 2863.63 1340.41 2864.59 1339.49 2866.53 1339.49L3043.84 1339.49C3045.56 1339.49 3046.42 1340.1 3046.42 1341.3L3048.61 1379.65C3048.61 1381.11 3047.64 1381.98 3045.68 1382.23 3043.72 1382.47 3042.51 1381.74 3042.04 1380.04 3040.32 1372 3037.75 1365.66 3034.33 1361.04 3030.94 1356.42 3025.77 1353.08 3018.84 1351.01 3011.92 1348.92 3002.14 1347.88 2989.5 1347.88L2932.22 1347.88C2927.6 1347.88 2923.7 1348.86 2920.52 1350.81 2917.36 1352.75 2915.79 1356.89 2915.79 1363.23L2915.79 1455.29 2988.4 1455.29C2999.83 1455.29 3007.36 1452.8 3011.02 1447.8 3014.66 1442.79 3016.61 1437.61 3016.85 1432.25 3017.1 1430.32 3018.19 1429.42 3020.13 1429.55 3022.09 1429.66 3023.07 1430.68 3023.07 1432.61L3023.07 1485.96C3023.07 1487.66 3022.09 1488.57 3020.13 1488.7 3018.19 1488.84 3017.1 1488.03 3016.85 1486.31 3016.61 1480.73 3014.66 1475.5 3011.02 1470.64 3007.36 1465.76 2999.83 1463.32 2988.4 1463.32L2915.79 1463.32 2915.79 1545.15C2915.79 1550.5 2917.06 1554.27 2919.62 1556.47 2922.17 1558.66 2925.39 1559.99 2929.29 1560.46L3001.9 1560.46C3014.55 1560.46 3024.02 1559.44 3030.34 1557.37 3036.68 1555.31 3041.18 1551.9 3043.84 1547.15 3046.52 1542.4 3048.71 1536.13 3050.41 1528.34Z" fill-rule="evenodd"/><path d="M3240.46 1528.34C3240.94 1526.62 3242.11 1525.83 3243.94 1525.95 3245.76 1526.09 3246.68 1527 3246.68 1528.7L3244.84 1566.69C3244.84 1567.9 3243.99 1568.49 3242.29 1568.49L3056.57 1568.49C3054.63 1568.49 3053.68 1567.59 3053.68 1565.79 3053.68 1563.97 3054.52 1562.92 3056.22 1562.66 3060.37 1561.93 3064.13 1561.38 3067.53 1561.01 3070.94 1560.65 3073.68 1559.37 3075.74 1557.17 3077.8 1554.98 3078.83 1550.73 3078.83 1544.4L3078.83 1363.94C3078.83 1357.39 3077.8 1353.01 3075.74 1350.81 3073.68 1348.62 3070.94 1347.41 3067.53 1347.17 3064.13 1346.92 3060.37 1346.42 3056.22 1345.68 3054.52 1345.19 3053.68 1344.04 3053.68 1342.24 3053.68 1340.41 3054.63 1339.49 3056.57 1339.49L3233.88 1339.49C3235.6 1339.49 3236.46 1340.1 3236.46 1341.3L3238.66 1379.65C3238.66 1381.11 3237.68 1381.98 3235.72 1382.23 3233.76 1382.47 3232.55 1381.74 3232.08 1380.04 3230.36 1372 3227.79 1365.66 3224.38 1361.04 3220.98 1356.42 3215.82 1353.08 3208.88 1351.01 3201.97 1348.92 3192.19 1347.88 3179.54 1347.88L3122.26 1347.88C3117.64 1347.88 3113.74 1348.86 3110.56 1350.81 3107.4 1352.75 3105.83 1356.89 3105.83 1363.23L3105.83 1455.29 3178.44 1455.29C3189.87 1455.29 3197.4 1452.8 3201.06 1447.8 3204.71 1442.79 3206.65 1437.61 3206.89 1432.25 3207.14 1430.32 3208.24 1429.42 3210.17 1429.55 3212.13 1429.66 3213.11 1430.68 3213.11 1432.61L3213.11 1485.96C3213.11 1487.66 3212.13 1488.57 3210.17 1488.7 3208.24 1488.84 3207.14 1488.03 3206.89 1486.31 3206.65 1480.73 3204.71 1475.5 3201.06 1470.64 3197.4 1465.76 3189.87 1463.32 3178.44 1463.32L3105.83 1463.32 3105.83 1545.15C3105.83 1550.5 3107.1 1554.27 3109.66 1556.47 3112.22 1558.66 3115.43 1559.99 3119.33 1560.46L3191.94 1560.46C3204.59 1560.46 3214.07 1559.44 3220.38 1557.37 3226.72 1555.31 3231.22 1551.9 3233.88 1547.15 3236.56 1542.4 3238.75 1536.13 3240.46 1528.34Z" fill-rule="evenodd"/></g></svg>